<?xml version="1.0" standalone="no"?>
<!DOCTYPE svg PUBLIC "-//W3C//DTD SVG 20010904//EN"
 "http://www.w3.org/TR/2001/REC-SVG-20010904/DTD/svg10.dtd">
<svg version="1.0" xmlns="http://www.w3.org/2000/svg"
 width="500.000000pt" height="500.000000pt" viewBox="0 0 500.000000 500.000000"
 preserveAspectRatio="xMidYMid meet">
<metadata>
Created by potrace 1.14, written by Peter Selinger 2001-2017
</metadata>
<g transform="translate(0.000000,500.000000) scale(0.100000,-0.100000)"
fill="#000000" stroke="none">
<path d="M0 2500 l0 -2500 2500 0 2500 0 0 2500 0 2500 -2500 0 -2500 0 0
-2500z m4270 594 c13 -15 8 -59 -17 -173 -6 -23 -5 -23 48 -16 30 4 63 9 74
11 60 12 156 24 198 24 26 0 47 4 47 9 0 6 -21 12 -47 14 l-48 3 52 2 c43 2
54 -2 67 -20 22 -30 20 -45 -5 -51 -30 -8 -55 3 -37 15 17 13 -185 2 -279 -15
-40 -7 -75 -15 -78 -18 -7 -8 -23 -97 -40 -228 -16 -117 -22 -490 -10 -524 10
-24 -34 -41 -55 -21 -12 12 -16 50 -18 189 -2 96 -6 175 -9 175 -3 0 -32 -14
-64 -31 -56 -30 -149 -116 -149 -139 0 -5 15 -10 34 -10 74 0 96 -32 96 -144
0 -115 -44 -236 -87 -236 -27 0 -73 31 -88 59 -8 16 -20 73 -27 126 -10 88
-14 98 -36 106 l-24 9 26 30 c27 33 30 44 46 200 7 58 20 147 31 199 11 52 17
109 13 126 -4 22 1 42 16 68 21 36 24 37 71 35 47 -3 48 -4 28 -19 -21 -15
-21 -16 10 -16 16 0 28 5 24 10 -3 5 4 6 17 2 17 -5 21 -4 15 5 -5 9 -4 11 3
6 15 -9 93 14 86 25 -3 5 -1 9 4 9 5 0 20 50 32 110 21 100 25 110 45 110 13
0 28 -7 35 -16z m-1093 -34 c48 -29 49 -53 9 -168 -49 -142 -102 -242 -130
-242 -51 1 -50 12 13 140 65 133 92 223 73 242 -9 9 -23 2 -59 -29 -158 -133
-318 -468 -331 -689 -5 -108 9 -182 45 -225 29 -34 52 -36 113 -8 62 28 104
62 152 122 28 36 38 44 33 27 -18 -56 29 6 71 95 24 50 44 87 44 83 1 -53 -53
-194 -71 -183 -5 4 -35 -19 -67 -50 -49 -50 -52 -53 -17 -29 22 16 50 40 62
54 32 36 28 10 -5 -36 -43 -58 -108 -113 -166 -140 -43 -19 -58 -22 -87 -14
-64 18 -122 63 -154 121 -28 51 -30 60 -30 171 0 65 -1 118 -3 118 -10 0 -54
-28 -104 -67 -55 -42 -57 -45 -63 -101 -18 -160 -84 -333 -150 -391 -48 -41
-77 -47 -117 -24 -46 27 -49 73 -9 158 36 78 74 136 158 238 l64 77 -3 103 -3
102 -22 -45 c-12 -25 -24 -52 -27 -60 -3 -8 -10 -22 -14 -30 -5 -8 -20 -37
-33 -63 -33 -67 -82 -109 -117 -101 -43 10 -75 48 -82 96 l-6 43 -26 -57 c-14
-31 -38 -64 -53 -74 -26 -17 -29 -17 -63 2 -20 10 -47 37 -59 59 -13 22 -23
35 -23 30 0 -6 -13 -25 -29 -43 -39 -42 -77 -43 -121 -2 -29 27 -33 28 -48 14
-21 -22 -79 -12 -110 19 -17 18 -27 44 -35 96 -6 39 -14 71 -18 71 -10 0 -66
-120 -79 -170 -7 -25 -14 -51 -16 -57 -5 -19 -52 5 -60 29 -3 11 -3 47 0 81
l6 62 -29 -60 c-32 -68 -78 -120 -115 -129 -35 -9 -90 16 -112 49 -40 62 -2
214 71 285 28 27 38 31 63 25 39 -8 53 -25 59 -72 4 -32 -2 -48 -35 -100 -22
-33 -57 -79 -77 -101 -20 -22 -32 -43 -26 -46 16 -10 57 11 86 46 16 18 32 32
36 31 5 -2 5 5 2 14 -4 10 -2 14 4 10 15 -10 72 88 84 144 12 55 20 63 50 54
18 -6 20 -12 14 -60 -5 -37 -3 -55 6 -60 8 -6 10 -4 4 4 -11 19 44 71 76 71
39 0 51 -21 65 -117 7 -47 17 -90 22 -95 18 -18 79 48 91 98 7 26 23 69 37 96
28 55 60 73 111 63 29 -5 33 -3 39 22 18 81 28 115 56 193 38 105 90 210 114
231 56 49 99 25 89 -50 -11 -80 -84 -280 -157 -433 l-70 -148 12 -50 c21 -86
54 -103 90 -45 12 19 24 35 26 35 3 0 2 -5 -2 -12 -5 -7 -3 -8 5 -4 7 5 10 15
7 23 -4 9 -2 11 6 7 8 -5 9 -2 5 10 -4 9 -3 15 2 12 10 -7 26 30 42 99 22 92
43 118 77 96 11 -7 10 -21 -7 -76 -20 -64 -29 -203 -15 -218 4 -4 19 1 33 11
14 9 35 22 46 28 10 6 47 60 82 121 61 107 63 111 54 157 -8 45 -8 46 13 40
11 -3 26 -11 32 -18 17 -17 34 -98 34 -165 0 -57 10 -76 26 -50 12 20 115 80
131 77 13 -2 25 22 55 111 75 223 216 440 323 495 41 22 93 20 132 -4z m-2334
-7 c-13 -2 -23 -9 -23 -15 0 -6 38 -9 103 -8 56 1 104 1 107 0 3 -1 18 -3 35
-5 21 -3 25 -1 15 5 -8 5 -11 12 -7 16 12 12 36 -18 43 -54 5 -23 3 -32 -7
-32 -8 -1 -40 -2 -71 -3 -32 -1 -58 1 -58 4 0 11 27 18 52 13 12 -2 17 -2 10
2 -6 3 -10 10 -7 14 11 18 -33 29 -117 29 -110 0 -116 -6 -135 -136 -15 -112
-32 -364 -34 -503 -1 -93 -2 -94 -12 -45 -16 76 -14 226 7 500 l5 70 -15 -85
c-9 -55 -16 -179 -18 -355 -2 -148 -1 -234 3 -190 6 70 8 73 9 27 1 -29 6 -51
11 -48 4 3 11 -26 13 -64 3 -40 12 -80 22 -94 9 -14 16 -34 16 -46 0 -16 -6
-20 -34 -20 -47 0 -61 18 -77 97 -25 133 -8 678 26 831 6 26 -14 29 -76 11
-37 -11 -37 -12 -22 -35 14 -22 13 -24 -19 -44 -18 -11 -37 -20 -43 -20 -21 0
-135 -60 -135 -70 0 -22 -19 1 -25 31 -11 49 10 82 78 123 34 20 68 34 74 31
45 -18 46 -18 38 -5 -6 10 -4 12 9 7 19 -8 92 10 114 27 11 8 10 11 -5 17 -12
4 -2 9 32 13 28 4 57 9 65 10 8 2 29 4 45 3 22 0 24 -1 8 -4z m160 0 c-7 -2
-21 -2 -30 0 -10 3 -4 5 12 5 17 0 24 -2 18 -5z m-71 -473 c7 0 9 -16 5 -42
l-6 -43 21 28 c27 37 59 35 108 -9 38 -35 41 -36 59 -20 16 15 19 15 31 1 16
-19 -3 -45 -34 -45 -24 0 -85 35 -101 57 -10 13 -14 12 -27 -9 -27 -41 -68
-169 -71 -221 -4 -58 -14 -66 -47 -39 l-24 19 13 149 c13 154 22 190 48 180 8
-3 19 -6 25 -6z m2400 0 c7 0 9 -16 5 -42 l-6 -43 21 28 c27 37 59 35 108 -9
38 -35 41 -36 59 -20 13 12 21 14 26 6 4 -7 17 -2 37 15 32 27 49 30 79 14 17
-8 24 -7 36 8 8 10 11 12 7 4 -5 -10 -3 -12 5 -7 7 5 10 14 7 21 -7 18 18 37
38 29 14 -5 16 -27 16 -158 0 -83 3 -162 7 -174 5 -21 3 -23 -18 -20 -37 5
-49 42 -49 153 0 115 -5 114 -60 -18 -17 -42 -40 -87 -50 -99 -17 -22 -18 -22
-45 -4 -27 18 -28 19 -22 102 5 81 4 84 -17 84 -24 0 -85 35 -101 57 -10 13
-14 12 -27 -9 -27 -41 -68 -169 -71 -221 -4 -58 -14 -66 -47 -39 l-24 19 13
149 c13 154 22 190 48 180 8 -3 19 -6 25 -6z m-1002 -207 c-18 -32 -37 -62
-43 -68 -6 -5 1 10 15 35 14 25 31 55 37 68 6 12 14 22 17 22 3 0 -9 -26 -26
-57z m799 -87 c-7 -14 -16 -26 -21 -26 -5 0 -1 13 8 30 21 35 30 33 13 -4z
m1488 -248 c112 -112 203 -207 203 -213 0 -6 -92 -102 -205 -215 l-205 -205
-203 203 -202 202 -688 0 c-680 0 -687 0 -687 20 0 20 7 20 693 20 l692 0 195
195 c107 107 197 195 200 195 3 0 96 -91 207 -202z"/>
<path d="M4045 2814 c-44 -20 -81 -37 -83 -39 -11 -10 -74 -395 -65 -395 1 0
24 15 51 34 26 19 74 46 108 61 l60 26 18 161 c9 88 20 167 23 174 9 23 -26
16 -112 -22z"/>
<path d="M4142 2630 c0 -19 2 -27 5 -17 2 9 2 25 0 35 -3 9 -5 1 -5 -18z"/>
<path d="M4133 2535 c0 -22 2 -30 4 -17 2 12 2 30 0 40 -3 9 -5 -1 -4 -23z"/>
<path d="M4133 2440 c0 -25 2 -35 4 -22 2 12 2 32 0 45 -2 12 -4 2 -4 -23z"/>
<path d="M4133 2230 c0 -47 2 -66 4 -42 2 23 2 61 0 85 -2 23 -4 4 -4 -43z"/>
<path d="M3937 2269 c-56 -15 -60 -25 -53 -118 15 -184 30 -214 76 -161 16 19
29 41 30 48 0 7 4 10 10 7 6 -4 8 7 4 27 -5 26 -3 30 6 18 13 -17 9 38 -10
127 -12 56 -21 64 -63 52z m51 -44 c-3 -3 -9 2 -12 12 -6 14 -5 15 5 6 7 -7
10 -15 7 -18z m-1 -157 c-3 -7 -5 -2 -5 12 0 14 2 19 5 13 2 -7 2 -19 0 -25z"/>
<path d="M2133 2948 c-46 -89 -103 -248 -128 -357 -14 -58 -23 -107 -20 -109
2 -2 14 16 26 40 12 23 25 45 28 48 4 3 12 21 18 40 22 65 62 165 63 155 1 -5
14 33 30 85 46 147 36 200 -17 98z"/>
<path d="M1264 2508 c-30 -35 -72 -134 -61 -145 3 -2 20 15 37 39 64 87 83
174 24 106z"/>
<path d="M1875 2524 c-43 -44 -80 -161 -69 -220 8 -45 25 -43 65 8 29 36 34
52 40 121 9 105 1 127 -36 91z"/>
<path d="M2392 2158 c-50 -67 -124 -185 -140 -221 -18 -41 -15 -77 5 -77 25 0
85 69 116 133 27 56 71 206 63 214 -2 3 -22 -19 -44 -49z"/>
<path d="M2377 1975 c-9 -19 -15 -35 -12 -35 7 0 37 61 33 66 -3 2 -12 -12
-21 -31z"/>
<path d="M2339 1913 c-32 -39 -44 -57 -32 -50 13 8 57 67 50 67 -2 0 -10 -8
-18 -17z"/>
<path d="M491 2961 c-27 -14 -30 -19 -17 -24 10 -4 24 1 37 14 11 11 25 17 31
13 7 -4 8 -3 4 4 -9 15 -14 15 -55 -7z"/>
<path d="M727 2958 c-30 -116 -56 -587 -41 -723 7 -67 10 -30 16 225 4 177 13
349 21 410 15 101 16 137 4 88z"/>
<path d="M752 2940 c0 -19 2 -27 5 -17 2 9 2 25 0 35 -3 9 -5 1 -5 -18z"/>
<path d="M723 2145 c0 -22 2 -30 4 -17 2 12 2 30 0 40 -3 9 -5 -1 -4 -23z"/>
<path d="M702 2125 c0 -16 2 -22 5 -12 2 9 2 23 0 30 -3 6 -5 -1 -5 -18z"/>
<path d="M731 2084 c0 -11 3 -14 6 -6 3 7 2 16 -1 19 -3 4 -6 -2 -5 -13z"/>
<path d="M3633 2488 c-15 -18 -43 -105 -43 -131 1 -21 1 -21 15 3 8 14 15 21
15 15 1 -5 9 6 20 26 25 47 19 119 -7 87z"/>
<path d="M4464 1898 c-52 -25 -64 -113 -21 -155 37 -38 127 -31 127 10 0 5 -8
3 -18 -6 -67 -61 -139 59 -79 129 18 21 28 25 46 19 18 -5 22 -13 18 -31 -3
-19 -1 -24 12 -22 9 2 17 12 19 22 8 38 -55 58 -104 34z"/>
<path d="M4230 1875 c0 -30 16 -33 23 -5 3 12 14 20 26 20 19 0 21 -6 21 -75
0 -60 -3 -76 -17 -84 -14 -8 -8 -10 27 -10 25 0 39 3 33 6 -19 7 -18 163 1
163 7 0 21 -10 29 -22 l16 -23 0 28 1 27 -80 0 c-79 0 -80 0 -80 -25z"/>
</g>
</svg>
